<svg xmlns="http://www.w3.org/2000/svg" width="512" height="512" viewBox="0 0 1024 1024" fill="#FACC15">
  <!-- Shipwright compass rose logo — 4-point star with center circle -->
  <!-- North point -->
  <path d="M511.966 175.267C513.447 178.217 516.458 192.696 517.421 196.709L527.487 237.746L567.247 401.95C556.143 413.539 544.03 425.159 532.668 436.522C526.016 443.176 518.923 450.501 512.184 456.916L456.588 402.273C462.565 382.531 467.228 358.722 472.407 338.104L511.966 175.267Z"/>
  <!-- South point -->
  <path d="M511.794 568.833C514.722 569.737 560.429 617.664 567.387 623.601C564.858 631.32 562.486 642.171 560.54 650.167L548.314 701.584L512.475 848.07L512.239 848.05C510.002 845.357 462.822 644.701 457.131 624.031C475.469 605.748 493.69 587.348 511.794 568.833Z"/>
  <!-- West point -->
  <path d="M400.536 458.595C402.365 459.093 450.208 506.749 456.234 512.558C452.49 517.107 443.348 525.711 438.912 530.12C426.537 542.441 414.072 554.672 401.518 566.81C390.606 563.177 371.141 559.522 359.385 556.709L260.709 533.585L209.438 521.316C197.32 518.491 183.432 515.755 171.652 512.482C179.291 510.333 188.886 508.349 196.705 506.522L244.189 495.43L400.536 458.595Z"/>
  <!-- East point -->
  <path d="M622.512 458.812C627.196 459.349 643.283 463.466 648.497 464.674L706.588 478.313L785.797 496.867L824.5 505.797C833.706 507.889 844.063 509.962 853.088 512.461C823.753 519.738 794.121 526.162 764.718 533.432L622.862 566.589C605.195 548.535 586.361 530.851 568.43 512.718C585.614 494.678 604.658 476.28 622.512 458.812Z"/>
  <!-- Center circle -->
  <path d="M508.175 482.903C524.607 480.66 539.742 492.171 541.969 508.606C544.195 525.04 532.668 540.163 516.231 542.373C499.819 544.58 484.721 533.073 482.498 516.662C480.275 500.251 491.767 485.142 508.175 482.903Z"/>
</svg>